# AST/ASF file generated using VICON BodyLanguage
# -----------------------------------------------
:version 1.10
:name VICON
:units
  mass 1.0
  length 0.45
  angle deg
:documentation
   .ast/.asf automatically generated from VICON data using
   VICON BodyBuilder and BodyLanguage model FoxedUp or BRILLIANT.MOD
:root
   order TX TY TZ RX RY RZ
   axis XYZ
   position 0 0 0  
   orientation 0 0 0 
:bonedata
  begin
     id 1 
     name lhipjoint
     direction 0.63403 -0.759788 0.143974 
     length 2.51904 
     axis 0 0 0  XYZ
  end
  begin
     id 2 
     name lfemur
     direction 0.34202 -0.939693 0  
     length 7.42313  
     axis 0 0 20  XYZ
    dof rx ry rz
    limits (-160.0 20.0)
           (-70.0 70.0)
           (-60.0 70.0)
  end
  begin
     id 3 
     name ltibia
     direction 0.34202 -0.939693 0   
     length 8.10141   
     axis 0 0 20   XYZ
    dof rx
    limits (-10.0 170.0)
  end
  begin
     id 4 
     name lfoot
     direction 0.0927455 -0.254816 0.962532   
     length 2.14078   
     axis -90 7.62852e-016 20   XYZ
    dof rx rz
    limits (-45.0 90.0)
           (-70.0 20.0)
  end
  begin
     id 5 
     name ltoes
     direction 1.53556e-011 -4.21949e-011 1   
     length 1.07182   
     axis -90 7.62852e-016 20   XYZ
    dof rx
    limits (-90.0 20.0)
  end
  begin
     id 6 
     name rhipjoint
     direction -0.659892 -0.738223 0.139888   
     length 2.59263  
     axis 0 0 0  XYZ 
  end
  begin
     id 7 
     name rfemur
     direction -0.34202 -0.939693 0   
     length 7.58575   
     axis 0 0 -20   XYZ
    dof rx ry rz
    limits (-160.0 20.0)
           (-70.0 70.0)
           (-70.0 60.0)
  end
  begin
     id 8 
     name rtibia
     direction -0.34202 -0.939693 0   
     length 8.19358   
     axis 0 0 -20   XYZ
    dof rx
    limits (-10.0 170.0)
 end
 begin
     id 9 
     name rfoot
     direction -0.0856543 -0.235333 0.968133   
     length 2.13415  
     axis -90 -7.62852e-016 -20   XYZ
    dof rx rz
    limits (-45.0 90.0)
           (-20.0 70.0)
  end
  begin
     id 10 
     name rtoes
     direction -1.53551e-011 -4.21811e-011 1   
     length 1.07055   
     axis -90 -7.62852e-016 -20   XYZ
    dof rx
    limits (-90.0 20.0)
  end
  begin
     id 11 
     name lowerback
     direction 0.025219 0.998394 -0.0507326   
     length 1.91844   
     axis 0 0 0   XYZ
    dof rx ry rz
    limits (-20.0 45.0)
           (-30.0 30.0)
           (-30.0 30.0)
  end
  begin
     id 12 
     name upperback
     direction 0.0213103 0.99967 -0.0143101   
     length 1.92246   
     axis 0 0 0   XYZ
    dof rx ry rz
    limits (-20.0 45.0)
           (-30.0 30.0)
           (-30.0 30.0)
  end
  begin
     id 13 
     name thorax
     direction 0.00920974 0.99991 0.00971518   
     length 1.92239   
     axis 0 0 0   XYZ
    dof rx ry rz
    limits (-20.0 45.0)
           (-30.0 30.0)
           (-30.0 30.0)
  end
  begin
     id 14 
     name lowerneck
     direction 0.0598257 0.997249 0.0437612   
     length 3.13679   
     axis 0 0 0   XYZ
    dof rx ry rz
    limits (-20.0 45.0)
           (-30.0 30.0)
           (-30.0 30.0)
  end
  begin
     id 15 
     name upperneck
     direction -0.035342 0.999338 0.00863891   
     length 3.16283   
     axis 0 0 0   XYZ
    dof rx ry rz
    limits (-20.0 45.0)
           (-30.0 30.0)
           (-30.0 30.0)
  end
  begin
     id 16
     name head
     direction 0.37144 0.811566 0.450991  
     length 1.2838  
     axis 0 0 0   XYZ
    dof rx ry rz
    limits (-20.0 45.0)
           (-30.0 30.0)
           (-30.0 30.0)
  end
  begin
     id 17 
     name lclavicle
     direction 0.961094 0.274654 -0.0293862  
     length 3.63466  
     axis 0 0 0   XYZ
    dof ry rz
    limits (-20.0 10.0)
           (0.0 20.0)
  end
  begin
     id 18 
     name lhumerus
     direction 1 -4.48963e-011 1.10303e-027   
     length 5.12842   
     axis 180 -30 -90   XYZ
    dof rx ry rz
    limits (-60.0 90.0)
           (-90.0 90.0)
           (-90.0 90.0)
  end
  begin
     id 19
     name lradius
     direction 1 -4.48968e-011 4.13199e-027   
     length 3.47396   
     axis 180 -30 -90   XYZ
    dof rx
    limits (-10.0 170.0)
  end
  begin
     id 20
     name lwrist
     direction 1 -4.48948e-011 9.12708e-027   
     length 1.73698   
     axis -6.84618e-015 90 90   XYZ
    dof ry
    limits (-180.0 0.0)
 end
  begin
     id 21 
     name lhand
     direction 1 -4.49057e-011 1.82749e-026   
     length 0.728607   
     axis -1.16502e-014 90 90   XYZ
    dof rx rz
    limits (-90.0 90.0)
           (-45.0 45.0)
  end
  begin
     id 22 
     name lfingers
     direction 1 -4.48912e-011 3.64949e-026   
     length 0.587422   
     axis -2.33008e-014 90 90   XYZ
    dof rx
    limits (0.0 90.0)
  end
  begin
     id 23
     name lthumb
     direction 0.707107 -6.34995e-011 0.707107   
     length 0.843424   
     axis -90 45 5.69224e-014   XYZ
    dof rx rz
    limits (-45.0 45.0)
           (-45.0 45.0)
  end
  begin
     id 24 
     name rclavicle
     direction -0.90514 0.421881 -0.0523369   
     length 3.57139  
     axis 0 0 0   XYZ 
    dof ry rz
    limits (-10.0 20.0)
           (-20.0 0.0)
  end
  begin
     id 25 
     name rhumerus
     direction -1 -4.48954e-011 -1.76662e-027  
     length 5.48477   
     axis 180 30 90   XYZ
    dof rx ry rz
    limits (-90.0 60.0)
           (-90.0 90.0)
           (-90.0 90.0)
  end
  begin
     id 26 
     name rradius
     direction -1 -4.48982e-011 1.26841e-027   
     length 3.47856   
     axis 180 30 90   XYZ
    dof rx
    limits (-10.0 170.0)
  end
  begin
     id 27 
     name rwrist
     direction -1 -4.49037e-011 9.13554e-027   
     length 1.73928   
     axis -6.84618e-015 -90 -90   XYZ
    dof ry
    limits (-180.0 0.0)
  end
  begin
     id 28
     name rhand
     direction -1 -4.48871e-011 1.82397e-026   
     length 0.709974   
     axis -1.16502e-014 -90 -90   XYZ
    dof rx rz
    limits (-90.0 90.0)
           (-45.0 45.0)
  end
  begin
     id 29
     name rfingers
     direction -1 -4.48994e-011 3.65258e-026   
     length 0.572399   
     axis -2.33008e-014 -90 -90   XYZ
    dof rx
    limits (0.0 90.0)
  end
  begin
     id 30
     name rthumb
     direction -0.707107 -6.34861e-011 0.707107   
     length 0.821855   
     axis -90 -45 -5.69224e-014   XYZ
    dof rx rz
    limits (-45.0 45.0)
           (-45.0 45.0)
  end
:hierarchy
  begin
    root lhipjoint rhipjoint lowerback
    lhipjoint lfemur
    lfemur ltibia
    ltibia lfoot
    lfoot ltoes
    rhipjoint rfemur
    rfemur rtibia
    rtibia rfoot
    rfoot rtoes
    lowerback upperback
    upperback thorax
    thorax lowerneck lclavicle rclavicle
    lowerneck upperneck
    upperneck head
    lclavicle lhumerus
    lhumerus lradius
    lradius lwrist
    lwrist lhand lthumb
    lhand lfingers
    rclavicle rhumerus
    rhumerus rradius
    rradius rwrist
    rwrist rhand rthumb
    rhand rfingers
  end

#!OML:ASF F:\VICON\USERDATA\INSTALL\Justin1\Justin1.ASF
:FULLY-SPECIFIED
:DEGREES
1084
root 0.285084 18.2115 -4.18902 4.10534 1.99973 -4.04419
lowerback 3.74106 -0.691241 2.0378
upperback -1.52647 -0.671938 4.13353
thorax -3.65102 -0.331057 3.17604
lowerneck -15.1382 -1.2634 -2.94395
upperneck 19.522 -0.192591 -3.77078
head 8.60498 -0.709048 -0.806701
rclavicle -1.35174e-014 4.77083e-015
rhumerus -31.2469 -4.30476 -82.03
rradius 30.3948
rwrist 1.91857
rhand -22.4286 15.3838
rfingers 7.12502
rthumb 3.99489 -14.5585
lclavicle -1.35174e-014 4.77083e-015
lhumerus -33.9584 4.79062 89.5343
lradius 30.8621
lwrist -19.6962
lhand -6.10592 23.7695
lfingers 7.12502
lthumb 19.7305 52.7882
rfemur -17.9564 7.3831 27.2167
rtibia 34.1478
rfoot -16.8635 -11.6975
rtoes 29.0602
lfemur -14.5112 -7.2225 -17.3086
ltibia 30.0814
lfoot -17.3283 11.0721
ltoes 4.39474
1085
root 0.278155 18.2068 -4.19317 4.04104 2.05666 -3.90445
lowerback 3.78406 -0.678525 1.99294
upperback -1.52687 -0.657762 4.0601
thorax -3.67639 -0.323788 3.12459
lowerneck -15.0077 -1.17033 -2.85059
upperneck 19.8331 -0.038763 -3.95563
head 8.68832 -0.654538 -0.868629
rclavicle 1.43125e-014 -2.78299e-014
rhumerus -31.1049 -3.90136 -82.2079
rradius 30.4782
rwrist 2.05366
rhand -22.4318 14.8535
rfingers 7.12502
rthumb 3.99178 -15.0888
lclavicle 1.43125e-014 -2.78299e-014
lhumerus -33.9827 4.82539 89.4333
lradius 30.862
lwrist -19.821
lhand -6.12535 23.8152
lfingers 7.12502
lthumb 19.7119 52.8358
rfemur -17.9045 7.18957 27.0911
rtibia 34.1718
rfoot -16.9309 -11.5418
rtoes 29.3637
lfemur -14.5033 -7.19379 -17.4465
ltibia 30.2318
lfoot -17.4329 10.999
ltoes 4.19384
1086
root 0.262561 18.2011 -4.19817 3.99553 2.06784 -3.90301
lowerback 3.7861 -0.638147 1.97979
upperback -1.49666 -0.606388 4.04187
thorax -3.64822 -0.298195 3.10893
lowerneck -14.9712 -1.09494 -2.66997
upperneck 20.1299 0.102596 -4.26647
head 8.78465 -0.613482 -0.990178
rclavicle -2.83765e-014 3.26007e-014
rhumerus -30.8947 -3.7032 -82.3334
rradius 30.6408
rwrist 2.32845
rhand -22.1237 14.1617
rfingers 7.12502
rthumb 4.28933 -15.7748
lclavicle -2.83765e-014 3.26007e-014
lhumerus -33.9186 4.77379 89.3553
lradius 30.8329
lwrist -19.8999
lhand -6.16326 23.7708
lfingers 7.12502
lthumb 19.6754 52.7951
rfemur -17.894 7.25741 27.1396
rtibia 34.1914
rfoot -16.9908 -11.5407
rtoes 29.9201
lfemur -14.536 -7.10798 -17.3892
ltibia 30.3564
lfoot -17.494 10.889
ltoes 4.19996
1087
root 0.241619 18.1969 -4.20494 3.94343 2.08918 -4.09841
lowerback 3.86965 -0.628593 2.11457
upperback -1.514 -0.580747 4.06617
thorax -3.71579 -0.288148 3.05845
lowerneck -14.984 -0.990591 -2.51512
upperneck 20.5552 0.279402 -4.48517
head 8.93533 -0.551651 -1.07434
rclavicle 3.77691e-015 -2.94201e-014
rhumerus -30.7911 -3.37073 -82.5822
rradius 30.8829
rwrist 2.54843
rhand -21.9611 13.6541
rfingers 7.12502
rthumb 4.44635 -16.2792
lclavicle 3.77691e-015 -2.94201e-014
lhumerus -33.9064 4.66587 89.2216
lradius 30.792
lwrist -19.8733
lhand -6.26507 23.6868
lfingers 7.12502
lthumb 19.5775 52.7211
rfemur -17.8837 7.43022 27.4385
rtibia 34.2026
rfoot -16.9762 -11.7299
rtoes 29.926
lfemur -14.6089 -6.97935 -17.0792
ltibia 30.4796
lfoot -17.541 10.7251
ltoes 4.29182
1088
root 0.224593 18.1934 -4.21078 3.92082 2.15667 -4.05298
lowerback 3.88345 -0.627036 2.07331
upperback -1.53507 -0.581007 4.01584
thorax -3.74537 -0.287852 3.02985
lowerneck -14.9979 -0.879967 -2.44417
upperneck 21.0901 0.463949 -4.57875
head 9.12537 -0.482011 -1.1025
rclavicle 2.57923e-014 -2.14687e-014
rhumerus -30.6485 -2.83477 -82.8916
rradius 30.9617
rwrist 2.58987
rhand -22.1759 13.4478
rfingers 7.12502
rthumb 4.23893 -16.4898
lclavicle 2.57923e-014 -2.14687e-014
lhumerus -33.9053 4.53397 89.0984
lradius 30.7402
lwrist -19.8029
lhand -6.46928 23.5421
lfingers 7.12502
lthumb 19.3812 52.5963
rfemur -17.8908 7.49996 27.4469
rtibia 34.2057
rfoot -17.0154 -11.7652
rtoes 30.3409
lfemur -14.6959 -6.94768 -17.0567
ltibia 30.6151
lfoot -17.5442 10.6047
ltoes 4.24385
1089
root 0.211023 18.19 -4.21618 3.93095 2.19636 -3.99658
lowerback 3.75314 -0.609434 2.06193
upperback -1.47686 -0.567608 3.99542
thorax -3.61174 -0.281385 3.0107
lowerneck -15.0476 -0.785905 -2.44026
upperneck 21.5353 0.648811 -4.70464
head 9.2932 -0.419982 -1.12974
rclavicle 7.55382e-015 3.97569e-014
rhumerus -30.3514 -2.2498 -83.1549
rradius 31.0156
rwrist 2.63923
rhand -22.4162 13.3943
rfingers 7.12502
rthumb 4.00689 -16.5477
lclavicle 7.55382e-015 3.97569e-014
lhumerus -33.7342 4.60023 88.9906
lradius 30.6797
lwrist -19.8317
lhand -6.45866 23.5627
lfingers 7.12502
lthumb 19.3914 52.6158
rfemur -17.9364 7.50704 27.4219
rtibia 34.2238
rfoot -17.052 -11.6784
rtoes 30.8263
lfemur -14.7887 -6.97872 -17.0653
ltibia 30.7551
lfoot -17.5453 10.6078
ltoes 3.6368
1090
root 0.196502 18.1865 -4.22359 3.89023 2.28267 -4.07968
lowerback 3.72026 -0.582315 2.19371
upperback -1.40694 -0.528165 4.02633
thorax -3.52324 -0.264462 2.96431
lowerneck -15.1439 -0.675113 -2.46478
upperneck 22.0184 0.867239 -4.81687
head 9.485 -0.345231 -1.14411
rclavicle 6.55989e-015 1.98785e-014
rhumerus -30.0241 -1.87494 -83.3201
rradius 31.1067
rwrist 2.7915
rhand -22.4727 13.5239
rfingers 7.12502
rthumb 3.95226 -16.4192
lclavicle 6.55989e-015 1.98785e-014
lhumerus -33.5025 4.63987 88.9521
lradius 30.5933
lwrist -19.9065
lhand -6.37326 23.5812
lfingers 7.12502
lthumb 19.4735 52.626
rfemur -17.9616 7.45407 27.5747
rtibia 34.2851
rfoot -17.0718 -11.6883
rtoes 31.0173
lfemur -14.8438 -7.04302 -16.911
ltibia 30.8586
lfoot -17.5359 10.6065
ltoes 2.93321
1091
root 0.178148 18.1807 -4.23081 3.87255 2.37756 -4.09711
lowerback 3.71547 -0.570383 2.23384
upperback -1.40335 -0.510215 4.03358
thorax -3.51779 -0.256292 2.94795
lowerneck -15.1909 -0.515719 -2.43888
upperneck 22.6822 1.15039 -4.92963
head 9.73417 -0.240882 -1.16077
rclavicle -1.37161e-014 1.03368e-014
rhumerus -29.7782 -1.44425 -83.5067
rradius 31.1878
rwrist 2.93303
rhand -22.2737 13.4909
rfingers 7.12502
rthumb 4.14447 -16.4485
lclavicle -1.37161e-014 1.03368e-014
lhumerus -33.3985 4.63707 88.8839
lradius 30.5392
lwrist -19.8961
lhand -6.40963 23.5278
lfingers 7.12502
lthumb 19.4385 52.5761
rfemur -18.0394 7.43947 27.6656
rtibia 34.3831
rfoot -17.0861 -11.7803
rtoes 31.1712
lfemur -14.9286 -7.06062 -16.8093
ltibia 30.9234
lfoot -17.512 10.567
ltoes 2.40115
1092
root 0.160284 18.1779 -4.23546 3.86933 2.50745 -3.98524
lowerback 3.6641 -0.572826 2.17518
upperback -1.43514 -0.51885 3.99114
thorax -3.52109 -0.259712 2.93702
lowerneck -15.154 -0.359549 -2.29747
upperneck 23.3559 1.44679 -5.23187
head 9.97665 -0.142235 -1.26134
rclavicle -6.70898e-015 1.82882e-014
rhumerus -29.6973 -0.970686 -83.748
rradius 31.4404
rwrist 3.08215
rhand -22.2068 13.2383
rfingers 7.12502
rthumb 4.20909 -16.6999
lclavicle -6.70898e-015 1.82882e-014
lhumerus -33.3895 4.74331 88.7429
lradius 30.5186
lwrist -19.9367
lhand -6.05936 23.8613
lfingers 7.12502
lthumb 19.7753 52.8754
rfemur -18.082 7.34427 27.6232
rtibia 34.488
rfoot -17.089 -11.8312
rtoes 31.0093
lfemur -14.9801 -7.02764 -16.8582
ltibia 30.956
lfoot -17.5149 10.4313
ltoes 2.13662
1093
root 0.141927 18.1805 -4.24021 3.80563 2.5706 -3.81193
lowerback 3.6861 -0.54553 2.05477
upperback -1.44105 -0.489286 3.92928
thorax -3.53989 -0.242967 2.93883
lowerneck -15.043 -0.25195 -2.09532
upperneck 23.8215 1.686 -5.68252
head 10.1346 -0.076174 -1.42975
rclavicle -1.72446e-014 -3.18055e-014
rhumerus -29.6278 -0.371926 -84.0531
rradius 31.7552
rwrist 3.21207
rhand -22.3546 12.7719
rfingers 7.12502
rthumb 4.06638 -17.1691
lclavicle -1.72446e-014 -3.18055e-014
lhumerus -33.3458 4.82498 88.609
lradius 30.5055
lwrist -19.9688
lhand -4.70782 24.9656
lfingers 7.12502
lthumb 21.0741 53.8404
rfemur -18.0491 7.23756 27.5218
rtibia 34.5837
rfoot -17.1055 -11.8003
rtoes 31.1503
lfemur -14.9238 -6.95635 -16.9875
ltibia 30.9542
lfoot -17.535 10.2683
ltoes 2.28462
1094
root 0.123321 18.1806 -4.24445 3.74481 2.58446 -3.71533
lowerback 3.66599 -0.513428 2.04912
upperback -1.39381 -0.452247 3.85412
thorax -3.48122 -0.225374 2.86025
lowerneck -14.9364 -0.147939 -1.97679
upperneck 24.235 1.89177 -5.93921
head 10.2732 -0.0095504 -1.52007
rclavicle -5.2181e-015 2.14687e-014
rhumerus -29.4766 0.321621 -84.4666
rradius 32.0119
rwrist 3.30236
rhand -22.4978 12.839
rfingers 7.12502
rthumb 3.92807 -17.1045
lclavicle -5.2181e-015 2.14687e-014
lhumerus -33.2218 4.72077 88.4765
lradius 30.5203
lwrist -19.8272
lhand -3.54927 26.0631
lfingers 7.12502
lthumb 22.1867 54.8098
rfemur -18.0309 7.21812 27.4729
rtibia 34.6506
rfoot -17.1197 -11.6521
rtoes 31.6699
lfemur -14.8733 -6.92757 -17.032
ltibia 30.9573
lfoot -17.5234 10.1809
ltoes 2.2992
